<?xml version="1.0" encoding="UTF-8" standalone="no"?>
<svg xmlns:ffdec="https://www.free-decompiler.com/flash" xmlns:xlink="http://www.w3.org/1999/xlink" ffdec:objectType="frame" height="68.0px" width="66.0px" xmlns="http://www.w3.org/2000/svg">
  <g transform="matrix(1.0, 0.0, 0.0, 1.0, 33.0, 34.0)">
    <use ffdec:characterId="214" height="68.0" transform="matrix(1.0, 0.0, 0.0, 1.0, -33.0, -34.0)" width="66.0" xlink:href="#shape0"/>
  </g>
  <defs>
    <g id="shape0" transform="matrix(1.0, 0.0, 0.0, 1.0, 33.0, 34.0)">
      <path d="M9.5 -27.25 Q9.5 -29.85 11.3 -31.7 13.15 -33.5 15.75 -33.5 18.35 -33.5 20.15 -31.7 22.0 -29.85 22.0 -27.25 22.0 -24.65 20.15 -22.85 18.35 -21.0 15.75 -21.0 13.15 -21.0 11.3 -22.85 9.5 -24.65 9.5 -27.25 M29.35 1.25 L29.5 4.0 Q29.5 12.15 24.85 18.4 L22.3 21.3 Q20.2 23.4 17.9 24.9 12.2 28.5 5.0 28.5 -0.35 28.5 -4.9 26.5 L4.5 5.5 29.35 1.25 M-17.55 13.75 Q-19.5 9.25 -19.5 4.0 -19.5 -6.15 -12.35 -13.35 -5.15 -20.5 5.0 -20.5 14.05 -20.5 20.75 -14.8 L-17.55 13.75 M-12.0 -20.5 Q-14.5 -20.5 -16.25 -22.25 -18.0 -24.0 -18.0 -26.5 -18.0 -29.0 -16.25 -30.75 -14.5 -32.5 -12.0 -32.5 -9.5 -32.5 -7.75 -30.75 -6.0 -29.0 -6.0 -26.5 -6.0 -24.0 -7.75 -22.25 -9.5 -20.5 -12.0 -20.5 M-23.1 1.9 Q-24.7 3.5 -27.0 3.5 -29.3 3.5 -30.9 1.9 -32.5 0.3 -32.5 -2.0 -32.5 -4.3 -30.9 -5.9 -29.3 -7.5 -27.0 -7.5 -24.7 -7.5 -23.1 -5.9 -21.5 -4.3 -21.5 -2.0 -21.5 0.3 -23.1 1.9" fill="#999999" fill-rule="evenodd" stroke="none"/>
      <path d="M20.75 -14.8 L22.3 -13.35 Q28.5 -7.15 29.35 1.25 L4.5 5.5 -4.9 26.5 Q-8.95 24.7 -12.35 21.3 -15.8 17.85 -17.55 13.75 L20.75 -14.8 M24.85 18.4 L32.5 27.0 26.5 33.5 17.9 24.9 Q20.2 23.4 22.3 21.3 L24.85 18.4" fill="#848484" fill-rule="evenodd" stroke="none"/>
      <path d="M9.5 -27.25 Q9.5 -29.85 11.3 -31.7 13.15 -33.5 15.75 -33.5 18.35 -33.5 20.15 -31.7 22.0 -29.85 22.0 -27.25 22.0 -24.65 20.15 -22.85 18.35 -21.0 15.75 -21.0 13.15 -21.0 11.3 -22.85 9.5 -24.65 9.5 -27.25" fill="none" stroke="#333333" stroke-linecap="round" stroke-linejoin="round" stroke-width="1.0"/>
      <path d="M20.75 -14.8 L22.3 -13.35 Q28.5 -7.15 29.35 1.25 L29.5 4.0 Q29.5 12.15 24.85 18.4 L32.5 27.0 26.5 33.5 17.9 24.9 Q12.2 28.5 5.0 28.5 -0.35 28.5 -4.9 26.5 -8.95 24.7 -12.35 21.3 -15.8 17.85 -17.55 13.75 -19.5 9.25 -19.5 4.0 -19.5 -6.15 -12.35 -13.35 -5.15 -20.5 5.0 -20.5 14.05 -20.5 20.75 -14.8 L-17.55 13.75 M-12.0 -20.5 Q-14.5 -20.5 -16.25 -22.25 -18.0 -24.0 -18.0 -26.5 -18.0 -29.0 -16.25 -30.75 -14.5 -32.5 -12.0 -32.5 -9.5 -32.5 -7.75 -30.75 -6.0 -29.0 -6.0 -26.5 -6.0 -24.0 -7.75 -22.25 -9.5 -20.5 -12.0 -20.5 M-23.1 1.9 Q-24.7 3.5 -27.0 3.5 -29.3 3.5 -30.9 1.9 -32.5 0.3 -32.5 -2.0 -32.5 -4.3 -30.9 -5.9 -29.3 -7.5 -27.0 -7.5 -24.7 -7.5 -23.1 -5.9 -21.5 -4.3 -21.5 -2.0 -21.5 0.3 -23.1 1.9 M24.85 18.4 L22.3 21.3 Q20.2 23.4 17.9 24.9 M-4.9 26.5 L4.5 5.5 29.35 1.25" fill="none" stroke="#333333" stroke-linecap="round" stroke-linejoin="round" stroke-width="1.0"/>
    </g>
  </defs>
</svg>
